<?xml version="1.0" encoding="UTF-8" standalone="no"?>
<svg
   width="1024"
   height="1024"
   viewBox="160 160 720 720"
   shape-rendering="crispEdges"
   version="1.1"
   id="svg5"
   xmlns="http://www.w3.org/2000/svg"
   xmlns:svg="http://www.w3.org/2000/svg">
  <defs
     id="defs5" />
  <title
     id="title1">Alt refined pixel keycap logo</title>
  <desc
     id="desc1">Clean pixel-inspired Alt keyboard key logo.</desc>
  <!-- compact pixel shadow -->
  <path
     fill="#D6DBE1"
     transform="translate(-16 32)"
     d="M232 176H792V200H824V232H848V792H824V824H792V848H232V824H200V792H176V232H200V200H232Z"
     id="path1" />
  <!-- outer shell -->
  <path
     fill="#697480"
     d="M232 176H792V200H824V232H848V792H824V824H792V848H232V824H200V792H176V232H200V200H232Z"
     id="path2" />
  <!-- light bevel -->
  <path
     fill="#B8C0C8"
     d="M248 208H776V224H800V248H816V776H800V800H776V816H248V800H224V776H208V248H224V224H248Z"
     id="path3" />
  <!-- recessed border -->
  <path
     fill="#4E5863"
     d="M280 248H744V264H768V288H784V736H768V760H744V776H280V760H256V736H240V288H256V264H280Z"
     id="path4" />
  <!-- key face -->
  <path
     fill="#FAFBFC"
     d="M304 280H720V296H744V320H760V704H744V728H720V744H304V728H280V704H264V320H280V296H304Z"
     id="path5" />
  <!-- label -->
  <path
     d="m 458.79004,598 h -29.28516 l -9.16406,-32.87109 H 374.91895 L 365.75488,598 H 336.37012 L 380.49707,463.62695 H 414.7627 Z M 397.62988,481.75586 q -0.79687,4.18359 -2.98828,12.55078 -2.0918,8.26758 -13.54687,48.70898 h 33.07031 q -11.6543,-41.03906 -13.74609,-49.10742 -1.99219,-8.06836 -2.78907,-12.15234 z m 145.79688,97.11914 21.61523,0.19922 V 598 l -34.76367,-0.49805 q -9.86133,-1.69336 -19.02539,-8.76562 -4.2832,-3.28711 -6.87305,-11.25586 -2.29101,-6.77344 -2.49023,-16.9336 v -91.4414 h -28.88672 v -18.92578 h 56.87695 v 113.55468 q 0.19922,8.56641 2.29102,10.95704 2.68945,3.08789 11.25586,4.18359 z m 0.59765,0.19922 z M 529.87988,563.73437 Z M 530.77637,598 Z m -28.88672,-37.45313 z m 95.99219,-51.39843 h -16.63477 v -18.92578 h 18.0293 l 8.76562,-28.08985 h 17.53125 v 28.08985 h 38.34961 v 18.92578 h -38.34961 v 52.79297 q 0,8.76562 1.59375,11.85351 1.69336,2.98828 5.37891,4.78125 3.68555,1.69336 10.35937,1.69336 12.35157,0 25.40039,-2.68945 v 18.52734 q -14.14453,2.29102 -20.02148,2.68945 -5.87695,0.49805 -12.25195,0.49805 -12.65039,0 -21.2168,-3.38672 -8.4668,-3.48633 -12.84961,-10.75781 -4.2832,-7.37109 -4.2832,-20.61914 z"
     id="text5"
     style="font-weight:700;font-size:204px;font-family:'Liberation Mono', 'Noto Sans Mono', 'DejaVu Sans Mono', monospace;letter-spacing:-8;text-anchor:middle;fill:#303842"
     aria-label="Alt" />
</svg>
